<svg width="222" height="96" viewBox="0 0 222 96" fill="none" xmlns="http://www.w3.org/2000/svg">
<g clip-path="url(#clip0_1_184)">
<path d="M62.335 19.2622H88.0345L74.2864 42.7185C75.1457 43.9612 75.9268 45.1262 76.708 46.2913L94.9085 15.3787H60.929C61.3976 16.6214 61.8663 17.8641 62.335 19.2622Z" fill="#1261AD"/>
<path d="M20.6221 42.5631L6.87404 19.2622H32.4173C32.886 17.9418 33.3547 16.6214 33.8234 15.3787H0.078125L18.2006 46.1359C18.9817 44.9709 19.841 43.8058 20.6221 42.5631Z" fill="#1261AD"/>
<path d="M56.7108 72.5437L47.4933 88.233L38.2759 72.5437H33.7452L47.4933 96L61.2414 72.5437H56.7108Z" fill="#1261AD"/>
<path d="M150.369 59.6505H153.806C155.837 59.6505 157.4 60.1165 157.4 61.9806C157.4 62.835 156.931 63.767 156.228 64V64.0777C157.165 64.3107 157.868 65.0097 157.868 66.3301C157.868 68.2719 156.15 69.1262 154.119 69.1262H150.369V59.6505V59.6505ZM153.728 63.3787C154.588 63.3787 154.9 62.9903 154.9 62.4466C154.9 61.8253 154.509 61.5923 153.728 61.5923H152.869V63.3787H153.728ZM153.885 67.1845C154.9 67.1845 155.369 66.7961 155.369 66.0971C155.369 65.3981 154.9 65.1651 153.885 65.1651H152.869V67.1845H153.885V67.1845Z" fill="#664A9E"/>
<path d="M162.555 59.6505H165.602L168.492 69.1262H165.836L164.742 64.5437C164.508 63.6117 164.274 62.4466 164.039 61.5146H163.961C163.727 62.4466 163.493 63.6117 163.258 64.5437L162.165 69.1262H159.587L162.555 59.6505ZM161.696 65.1651H166.383V67.1068H161.696V65.1651Z" fill="#664A9E"/>
<path d="M172.241 65.8641L169.351 59.6505H172.085L172.788 61.6699C173.022 62.369 173.257 63.068 173.491 63.767H173.569C173.804 62.9903 174.038 62.369 174.35 61.6699L175.053 59.6505H177.709L174.819 65.8641V69.1262H172.319V65.8641H172.241Z" fill="#664A9E"/>
<path d="M185.755 59.6505H188.802L191.692 69.1262H189.036L187.942 64.5437C187.708 63.6117 187.474 62.4466 187.239 61.5146H187.161C186.927 62.4466 186.692 63.6117 186.458 64.5437L185.365 69.1262H182.787L185.755 59.6505ZM184.896 65.1651H189.583V67.1068H184.896V65.1651Z" fill="#664A9E"/>
<path d="M193.957 59.6505H197.55C199.581 59.6505 201.378 60.3495 201.378 62.7573C201.378 65.0874 199.581 66.0194 197.55 66.0194H196.457V69.1262H193.957V59.6505ZM197.394 64C198.41 64 198.956 63.534 198.956 62.7573C198.956 61.9029 198.41 61.6699 197.394 61.6699H196.457V64H197.394ZM197.082 65.3204L198.8 63.6893L201.925 69.2039H199.113L197.082 65.3204Z" fill="#664A9E"/>
<path d="M204.659 59.6505H210.83V61.7476H207.158V63.2233H210.283V65.3204H207.158V67.0292H210.986V69.1262H204.659V59.6505Z" fill="#664A9E"/>
<path d="M215.985 59.6505H219.032L221.922 69.1262H219.266L218.172 64.5437C217.938 63.6117 217.704 62.4466 217.469 61.5146H217.391C217.157 62.4466 216.923 63.6117 216.688 64.5437L215.595 69.1262H213.017L215.985 59.6505ZM215.204 65.1651H219.891V67.1068H215.204V65.1651Z" fill="#664A9E"/>
<path d="M103.579 48.1553L109.203 43.9611C110.531 46.4466 112.484 47.6116 114.359 47.6116C117.327 47.6116 118.968 46.1359 118.968 41.2427V17.4757H127.248V41.9417C127.248 49.0097 123.576 54.7573 115.452 54.7573C109.828 54.7573 106.079 52.5825 103.579 48.1553Z" fill="#1261AD"/>
<path d="M131.153 35.9612C131.153 23.8447 139.199 16.7767 148.495 16.7767C153.26 16.7767 157.087 19.0292 159.587 21.5146L155.212 26.7962C153.338 25.0874 151.385 23.9224 148.729 23.9224C143.652 23.9224 139.668 28.3496 139.668 35.6505C139.668 43.1845 143.183 47.534 148.573 47.534C151.619 47.534 153.963 46.0583 155.759 44.1165L160.134 49.3204C157.087 52.8156 153.025 54.6797 148.26 54.6797C138.965 54.7573 131.153 48.3107 131.153 35.9612Z" fill="#1261AD"/>
<path d="M162.946 17.4757H176.225C184.037 17.4757 190.442 20.1942 190.442 28.8932C190.442 37.2815 184.037 40.932 176.225 40.932H171.304V54.0582H163.024V17.4757H162.946ZM175.522 34.3301C179.897 34.3301 182.24 32.466 182.24 28.8932C182.24 25.2427 179.897 24.0776 175.522 24.0776H171.304V34.3301H175.522ZM174.663 38.7573L180.443 33.4757L192.16 54.1359H182.865L174.663 38.7573Z" fill="#1261AD"/>
<path d="M192.942 35.9612C192.942 23.8447 200.987 16.7767 210.283 16.7767C215.048 16.7767 218.875 19.0292 221.375 21.5146L217.001 26.7962C215.126 25.0874 213.173 23.9224 210.517 23.9224C205.44 23.9224 201.456 28.3496 201.456 35.6505C201.456 43.1845 204.971 47.534 210.361 47.534C213.407 47.534 215.751 46.0583 217.548 44.1165L221.922 49.3204C218.875 52.8156 214.814 54.6797 210.049 54.6797C200.753 54.7573 192.942 48.3107 192.942 35.9612Z" fill="#1261AD"/>
<path d="M91.2372 67.2621C91.159 67.1845 83.2695 59.6505 72.2555 43.3398C60.5384 25.7864 55.7734 5.43689 54.9141 1.08738V0H52.102V0.699029H42.7284V0H39.9163V1.08738C38.9789 5.43689 34.2139 25.7864 22.4968 43.3398C11.5609 59.6505 3.59324 67.1845 3.51513 67.2621L0 70.6019H3.98381H90.8466H94.8304L91.2372 67.2621ZM42.0253 30.9903L46.7122 36.2718L41.791 41.4757L42.0253 30.9903ZM42.1816 29.5146L47.4152 23.6893L52.727 29.5922L47.4933 35.4175L42.1816 29.5146ZM41.7129 44.2718L46.7903 49.6311L41.4785 54.9126L41.7129 44.2718ZM41.791 42.8738L47.4152 36.9709L53.0394 42.8738L47.4152 48.7767L41.791 42.8738ZM53.1956 44.2718L53.5081 54.9903L48.1182 49.6311L53.1956 44.2718ZM48.1182 36.1942L52.8051 30.9126L53.1175 41.4757L48.1182 36.1942ZM52.8051 28.1165L48.0401 22.835L52.5707 17.4757L52.8051 28.1165ZM47.4152 21.9806L42.4159 16.0777L47.4152 10.1748L52.4145 16.0777L47.4152 21.9806ZM46.7903 22.835L42.0253 28.1165L42.2597 17.4757L46.7903 22.835ZM41.4004 56.466L47.4152 50.4854L53.5081 56.5437L53.7424 66.7185H41.1661L41.4004 56.466ZM52.4145 14.6019L47.962 9.39806L52.102 4.11651L52.4145 14.6019ZM51.4771 3.41748L47.4152 8.54369L43.3533 3.33981H51.4771V3.41748ZM46.8684 9.32039L42.4159 14.6019L42.6502 4.03883L46.8684 9.32039ZM16.7164 66.7185H9.45179C11.3265 64.699 13.8262 61.6699 16.9507 57.7087L16.7164 66.7185ZM24.5278 66.7185H17.5757L17.8881 56.466C20.0753 53.5922 22.4968 50.1748 25.1527 46.2913L24.5278 66.7185ZM29.6052 66.7185H25.4652L26.0901 44.8155C27.6524 42.4078 29.1365 39.9223 30.4645 37.5146L29.6052 66.7185ZM30.5426 66.7185L31.4799 35.6505C32.4173 33.7864 33.3547 31.8447 34.1358 30.0583L33.0422 66.7961H30.5426V66.7185ZM33.9796 66.7185L35.1513 27.6505C35.7762 26.0971 36.4011 24.6214 36.9479 23.1456L35.7762 66.7185H33.9796ZM37.9634 20.3495C38.5883 18.5631 39.1351 16.932 39.6038 15.301L38.354 66.7185H36.7136L37.9634 20.3495ZM56.6327 66.7185L55.3047 15.4563C55.8515 17.165 56.3983 19.0291 57.1013 20.9709L58.3512 66.7961H56.6327V66.7185ZM59.2104 66.7185L58.0387 23.6893C58.5855 25.165 59.2104 26.6408 59.8353 28.1942L61.007 66.7185H59.2104ZM61.9444 66.7185L60.8508 30.4466C61.6319 32.3107 62.5693 34.1748 63.5067 36.0388L64.4441 66.7185H61.9444ZM65.3814 66.7185L64.5222 37.9029C65.8501 40.3107 67.3343 42.7961 68.8965 45.2039L69.5215 66.7185H65.3814ZM70.4588 66.7185L69.8339 46.6019C72.4898 50.4854 74.9113 53.8252 77.0985 56.699L77.411 66.7185H70.4588ZM78.2702 66.7185L78.0359 57.9417C81.0823 61.8252 83.5039 64.699 85.3005 66.7185H78.2702Z" fill="#1261AD"/>
</g>
<defs>
<clipPath id="clip0_1_184">
<rect width="222" height="96" fill="white"/>
</clipPath>
</defs>
</svg>
